<svg width="86" height="18" viewBox="0 0 86 18" fill="none" xmlns="http://www.w3.org/2000/svg">
<path d="M1.035 3.29H5.88C8.385 3.29 9.57 4.82 9.57 6.725C9.57 8.66 8.355 10.16 5.895 10.16H3.39V14H1.035V3.29ZM3.39 8.33H5.265C6.615 8.33 7.29 7.865 7.29 6.725C7.29 5.63 6.66 5.12 5.28 5.12H3.39V8.33ZM14.1849 6.035C16.4499 6.035 17.5749 6.8 17.5749 8.24V12.35C17.5749 12.965 17.6499 13.685 17.8449 14H15.6849C15.6099 13.76 15.5499 13.505 15.5349 13.25C14.9349 13.88 14.0199 14.21 12.9249 14.21C11.3349 14.21 10.2849 13.385 10.2849 11.885C10.2849 11.135 10.5249 10.61 10.9599 10.235C11.4549 9.815 12.1749 9.59 13.4649 9.455C14.8449 9.305 15.4449 9.185 15.4449 8.495C15.4449 7.61 14.7999 7.46 14.0799 7.46C13.1949 7.46 12.7299 7.82 12.6549 8.63H10.5249C10.6149 6.935 12.0099 6.035 14.1849 6.035ZM12.4149 11.795C12.4149 12.41 12.7899 12.785 13.7199 12.785C14.8599 12.785 15.4449 12.17 15.4449 11.03V10.205C15.2499 10.385 14.8749 10.49 14.1549 10.58C13.0599 10.715 12.4149 10.955 12.4149 11.795ZM23.5582 6.035C23.7682 6.035 23.9182 6.08 24.0232 6.11V8.09C23.8132 8.045 23.5582 8.015 23.2582 8.015C21.7132 8.015 21.1582 9.08 21.1582 10.505V14H19.0282V6.245H21.0532V7.685H21.0832C21.4882 6.71 22.4932 6.035 23.5582 6.035ZM24.7182 6.245H26.8482V14H24.7182V6.245ZM26.1432 3.035H28.4982L26.1882 5.165H24.7032L26.1432 3.035ZM31.5054 6.035C33.6054 6.035 34.7904 6.905 34.9254 8.51H32.9004C32.8404 7.76 32.3304 7.46 31.4454 7.46C30.6204 7.46 30.2604 7.715 30.2604 8.18C30.2604 8.675 30.7254 8.93 31.9254 9.17C33.5004 9.485 34.0704 9.725 34.5354 10.115C34.9404 10.475 35.1354 10.925 35.1354 11.51C35.1354 13.505 33.4104 14.21 31.5954 14.21C29.4804 14.21 28.0104 13.31 27.9504 11.48H29.9754C29.9754 12.35 30.7254 12.785 31.6104 12.785C32.3304 12.785 33.0054 12.47 33.0054 11.795C33.0054 11.225 32.3454 10.955 30.6654 10.61C28.8654 10.235 28.1304 9.635 28.1304 8.525C28.1304 6.875 29.3304 6.035 31.5054 6.035Z" fill="black"/>
</svg>
